<!DOCTYPE svg PUBLIC "-//W3C//DTD SVG 20010904//EN" "http://www.w3.org/TR/2001/REC-SVG-20010904/DTD/svg10.dtd">
<svg version="1.0" xmlns="http://www.w3.org/2000/svg" width="706px" height="706px" viewBox="0 0 7060 7060" preserveAspectRatio="xMidYMid meet">
<g id="layer101" fill="#0d0d0d" stroke="none">
 <path d="M0 3530 l0 -3530 3530 0 3530 0 0 3530 0 3530 -3530 0 -3530 0 0 -3530z"/>
 </g>
<g id="layer102" fill="#fefefe" stroke="none">
 <path d="M0 3530 l0 -3530 3530 0 3530 0 0 3530 0 3530 -3530 0 -3530 0 0 -3530z m3970 3481 c785 -102 1483 -444 2040 -1001 565 -564 901 -1258 1007 -2075 25 -194 25 -613 -1 -810 -104 -814 -442 -1511 -1006 -2075 -564 -564 -1260 -902 -2075 -1007 -196 -25 -614 -25 -810 0 -814 105 -1511 443 -2075 1007 -562 562 -910 1279 -1005 2070 -24 203 -25 635 -2 815 106 816 443 1511 1007 2075 491 491 1101 820 1780 959 345 71 789 87 1140 42z"/>
 <path d="M2050 4010 l0 -1250 205 0 205 0 0 1250 0 1250 -205 0 -205 0 0 -1250z"/>
 <path d="M3260 4010 l0 -1250 205 0 205 0 2 206 3 206 44 -64 c139 -197 321 -326 538 -380 124 -31 361 -30 478 1 318 84 503 305 582 694 14 72 17 194 20 960 l4 877 -200 0 -201 0 0 -764 c0 -841 -4 -918 -58 -1080 -33 -97 -64 -153 -121 -218 -153 -174 -468 -209 -714 -81 -133 69 -266 227 -325 385 -53 142 -54 154 -52 986 l1 772 -206 0 -205 0 0 -1250z"/>
 <path d="M2142 2094 c-184 -92 -186 -361 -3 -456 43 -23 66 -28 120 -28 153 0 261 106 261 255 0 149 -108 255 -261 255 -50 0 -77 -6 -117 -26z"/>
 </g>

</svg>