<!DOCTYPE svg PUBLIC "-//W3C//DTD SVG 20010904//EN" "http://www.w3.org/TR/2001/REC-SVG-20010904/DTD/svg10.dtd">
<svg version="1.0" xmlns="http://www.w3.org/2000/svg" width="708px" height="708px" viewBox="0 0 7080 7080" preserveAspectRatio="xMidYMid meet">
<g id="layer101" fill="#0d0d0d" stroke="none">
 <path d="M0 3540 l0 -3540 3540 0 3540 0 0 3540 0 3540 -3540 0 -3540 0 0 -3540z"/>
 </g>
<g id="layer102" fill="#ffffff" stroke="none">
 <path d="M0 3540 l0 -3540 3540 0 3540 0 0 3540 0 3540 -3540 0 -3540 0 0 -3540z m3975 3481 c790 -106 1480 -445 2035 -1001 565 -564 902 -1259 1007 -2075 25 -196 25 -614 0 -810 -105 -815 -443 -1511 -1007 -2075 -564 -564 -1260 -902 -2075 -1007 -196 -25 -614 -25 -810 0 -814 105 -1511 443 -2075 1007 -562 562 -910 1279 -1005 2070 -24 203 -25 635 -2 815 106 816 443 1511 1007 2075 563 563 1285 913 2070 1004 207 24 209 24 465 20 166 -2 286 -9 390 -23z"/>
 <path d="M1640 3649 l0 -1540 563 4 c622 4 628 5 813 76 212 82 375 250 439 455 93 292 38 608 -145 824 -90 107 -240 205 -400 261 -45 16 -83 31 -86 33 -2 3 26 23 63 44 86 50 182 146 259 259 50 74 620 980 687 1093 l19 32 -215 0 -214 0 -264 -442 c-145 -244 -290 -483 -323 -533 -80 -122 -202 -243 -286 -283 -91 -42 -157 -52 -362 -52 l-178 0 0 655 0 655 -185 0 -185 0 0 -1541z m1036 -119 c123 -31 199 -73 279 -154 82 -83 118 -145 145 -252 37 -143 23 -302 -37 -422 -33 -66 -133 -161 -205 -195 -120 -57 -147 -60 -510 -64 l-338 -4 0 555 0 556 293 0 c261 0 303 -2 373 -20z"/>
 <path d="M4714 3886 c-202 -39 -372 -131 -506 -275 -126 -136 -205 -297 -244 -498 -21 -104 -24 -340 -6 -450 48 -295 213 -551 458 -712 174 -114 353 -163 600 -163 198 1 344 24 487 79 l67 26 0 132 0 132 -92 -46 c-212 -106 -508 -139 -718 -80 -259 71 -467 291 -534 560 -53 216 -33 500 48 683 56 127 171 254 289 320 80 45 213 83 319 91 142 12 343 -22 446 -74 l42 -21 0 -285 0 -285 -225 0 -225 0 0 -110 0 -110 345 0 345 0 0 465 0 465 -62 31 c-89 45 -176 76 -292 106 -85 21 -130 25 -286 29 -129 2 -207 -1 -256 -10z"/>
 </g>

</svg>